# xmcd
#
# Track frame offsets:
#	150
#	14338
#	28980
#	46524
#	62868
#	83865
#	97384
#	110605
#	135889
#	157820
#	168606
#	178674
#	196386
#	219441
#	238648
#
# Disc length: 3413 seconds
#
# Revision: 1
# Processed by: cddbd v1.4PL0 Copyright (c) Steve Scherf et al.
# Submitted via: audiograbber 1.81.03
#
DISCID=c90d530f
DTITLE=R.J. Mischo - West Wind Blowin
DYEAR=1999
DGENRE=Blues
TTITLE0=Money Back Guarantee
TTITLE1=Watch Out
TTITLE2=What I Got To Have
TTITLE3=West Winds Are Blowing
TTITLE4=Bit Off More Than I Can Chew
TTITLE5=Goat Whiskers
TTITLE6=Going In Your Direction
TTITLE7=Selling The Jelly
TTITLE8=I Feel So Good
TTITLE9=R.J. Getup! Milk That Cow
TTITLE10=Courtin' In R Cadillac
TTITLE11=Miss Heidi Ho
TTITLE12=It's My Life. Baby
TTITLE13=How Much More
TTITLE14=South City Fog
EXTD=
EXTT0=
EXTT1=
EXTT2=
EXTT3=
EXTT4=
EXTT5=
EXTT6=
EXTT7=
EXTT8=
EXTT9=
EXTT10=
EXTT11=
EXTT12=
EXTT13=
EXTT14=
PLAYORDER=
